{
  "accessors": [
    {
      "bufferView": 2,
      "componentType": 5126,
      "count": 2763,
      "max": [
        7.474308967590332,
        31.620975494384766,
        7.4743123054504395
      ],
      "min": [
        -8.9858112335205078,
        -9.3132257461547852e-08,
        -7.4743075370788574
      ],
      "type": "VEC3"
    },
    {
      "bufferView": 2,
      "byteOffset": 33156,
      "componentType": 5126,
      "count": 2763,
      "max": [
        1,
        1,
        1
      ],
      "min": [
        -1,
        -1,
        -1
      ],
      "type": "VEC3"
    },
    {
      "bufferView": 3,
      "componentType": 5126,
      "count": 2763,
      "max": [
        1,
        1,
        1,
        1
      ],
      "min": [
        -0.9998018741607666,
        -1,
        -1,
        -1
      ],
      "type": "VEC4"
    },
    {
      "bufferView": 1,
      "componentType": 5126,
      "count": 2763,
      "max": [
        0.99268633127212524,
        0.99037367105484009
      ],
      "min": [
        0.0075177848339080811,
        0.007278144359588623
      ],
      "type": "VEC2"
    },
    {
      "bufferView": 1,
      "byteOffset": 22104,
      "componentType": 5126,
      "count": 2763,
      "max": [
        0.98262518644332886,
        0.99810582399368286
      ],
      "min": [
        0.00186269695404917,
        0.0018621321069076657
      ],
      "type": "VEC2"
    },
    {
      "bufferView": 1,
      "byteOffset": 44208,
      "componentType": 5126,
      "count": 2763,
      "max": [
        0.99268633127212524,
        0.99037367105484009
      ],
      "min": [
        0.0075177848339080811,
        0.007278144359588623
      ],
      "type": "VEC2"
    },
    {
      "bufferView": 0,
      "componentType": 5125,
      "count": 12648,
      "max": [
        2762
      ],
      "min": [
        0
      ],
      "type": "SCALAR"
    }
  ],
  "asset": {
    "extras": {
      "author": "HippoStance (https://sketchfab.com/hippostance)",
      "license": "CC-BY-4.0 (http://creativecommons.org/licenses/by/4.0/)",
      "source": "https://sketchfab.com/3d-models/paper-towel-roll-e10eb527561048b6bc1786c8c44cd0f5",
      "title": "Paper Towel Roll"
    },
    "generator": "Sketchfab-6.28.0",
    "version": "2.0"
  },
  "bufferViews": [
    {
      "buffer": 0,
      "byteLength": 50592,
      "byteOffset": 0,
      "name": "floatBufferViews",
      "target": 34963
    },
    {
      "buffer": 0,
      "byteLength": 66312,
      "byteOffset": 50592,
      "byteStride": 8,
      "name": "floatBufferViews",
      "target": 34962
    },
    {
      "buffer": 0,
      "byteLength": 66312,
      "byteOffset": 116904,
      "byteStride": 12,
      "name": "floatBufferViews",
      "target": 34962
    },
    {
      "buffer": 0,
      "byteLength": 44208,
      "byteOffset": 183216,
      "byteStride": 16,
      "name": "floatBufferViews",
      "target": 34962
    }
  ],
  "buffers": [
    {
      "byteLength": 227424,
      "uri": "scene.bin"
    }
  ],
  "images": [
    {
      "uri": "textures/PaperTowelRoll_baseColor.png"
    },
    {
      "uri": "textures/PaperTowelRoll_metallicRoughness.png"
    },
    {
      "uri": "textures/PaperTowelRoll_normal.png"
    }
  ],
  "materials": [
    {
      "doubleSided": false,
      "name": "PaperTowelRoll",
      "normalTexture": {
        "index": 2,
        "scale": 1,
        "texCoord": 0
      },
      "occlusionTexture": {
        "index": 1,
        "strength": 1,
        "texCoord": 0
      },
      "pbrMetallicRoughness": {
        "baseColorFactor": [
          1,
          1,
          1,
          1
        ],
        "baseColorTexture": {
          "index": 0,
          "texCoord": 0
        },
        "metallicFactor": 1,
        "metallicRoughnessTexture": {
          "index": 1,
          "texCoord": 0
        },
        "roughnessFactor": 1
      }
    }
  ],
  "meshes": [
    {
      "name": "SM_PaperTowelRoll_PaperTowelRoll_0",
      "primitives": [
        {
          "attributes": {
            "NORMAL": 1,
            "POSITION": 0,
            "TANGENT": 2,
            "TEXCOORD_0": 3,
            "TEXCOORD_1": 4,
            "TEXCOORD_2": 5
          },
          "indices": 6,
          "material": 0,
          "mode": 4
        }
      ]
    }
  ],
  "nodes": [
    {
      "children": [
        1
      ],
      "name": "RootNode (gltf orientation matrix)",
      "rotation": [
        -0.70710678118654746,
        -0,
        -0,
        0.70710678118654757
      ]
    },
    {
      "children": [
        2
      ],
      "name": "RootNode (model correction matrix)"
    },
    {
      "children": [
        3
      ],
      "matrix": [
        1,
        0,
        0,
        0,
        0,
        0,
        1,
        0,
        0,
        -1,
        0,
        0,
        0,
        0,
        0,
        1
      ],
      "name": "d45b8e6e364b4dd0867dff2a88faff89.fbx"
    },
    {
      "children": [
        4
      ],
      "name": "RootNode"
    },
    {
      "children": [
        5
      ],
      "matrix": [
        1,
        0,
        0,
        0,
        0,
        1,
        0,
        0,
        0,
        0,
        1,
        0,
        5.8207660913467407e-07,
        0,
        -2.1653249859809875e-06,
        1
      ],
      "name": "SM_PaperTowelRoll"
    },
    {
      "mesh": 0,
      "name": "SM_PaperTowelRoll_PaperTowelRoll_0"
    }
  ],
  "samplers": [
    {
      "magFilter": 9729,
      "minFilter": 9987,
      "wrapS": 10497,
      "wrapT": 10497
    }
  ],
  "scene": 0,
  "scenes": [
    {
      "name": "OSG_Scene",
      "nodes": [
        0
      ]
    }
  ],
  "textures": [
    {
      "sampler": 0,
      "source": 0
    },
    {
      "sampler": 0,
      "source": 1
    },
    {
      "sampler": 0,
      "source": 2
    }
  ]
}

